<svg width="20" height="21" viewBox="0 0 20 21" fill="none" xmlns="http://www.w3.org/2000/svg">
<mask id="mask0_7492_218" style="mask-type:alpha" maskUnits="userSpaceOnUse" x="0" y="0" width="20" height="21">
<rect width="20" height="20" transform="matrix(-1 0 0 1 20 0.5)" fill="#D9D9D9"/>
</mask>
<g mask="url(#mask0_7492_218)">
<path d="M8.12467 18.3334C8.44412 18.6529 8.83995 18.8126 9.31217 18.8126C9.7844 18.8126 10.1802 18.6529 10.4997 18.3334L17.833 11.0001C17.9858 10.8473 18.1073 10.6667 18.1976 10.4584C18.2879 10.2501 18.333 10.0279 18.333 9.79175V3.83341C18.333 3.37508 18.1698 2.98272 17.8434 2.65633C17.517 2.32994 17.1247 2.16675 16.6663 2.16675H10.708C10.4719 2.16675 10.2497 2.21189 10.0413 2.30216C9.83301 2.39244 9.65245 2.51397 9.49967 2.66675L2.16634 10.0209C1.8469 10.3404 1.68717 10.7327 1.68717 11.198C1.68717 11.6633 1.8469 12.0556 2.16634 12.3751L8.12467 18.3334ZM9.31217 17.1667L3.35384 11.2084L10.708 3.83341H16.6663V9.79175L9.31217 17.1667ZM14.583 7.16675C14.2358 7.16675 13.9406 7.04522 13.6976 6.80217C13.4545 6.55911 13.333 6.26397 13.333 5.91675C13.333 5.56953 13.4545 5.27439 13.6976 5.03133C13.9406 4.78828 14.2358 4.66675 14.583 4.66675C14.9302 4.66675 15.2254 4.78828 15.4684 5.03133C15.7115 5.27439 15.833 5.56953 15.833 5.91675C15.833 6.26397 15.7115 6.55911 15.4684 6.80217C15.2254 7.04522 14.9302 7.16675 14.583 7.16675Z" fill="#3BADFC"/>
</g>
</svg>
