<svg width="20" height="21" viewBox="0 0 20 21" fill="none" xmlns="http://www.w3.org/2000/svg">
<mask id="mask0_7492_231" style="mask-type:alpha" maskUnits="userSpaceOnUse" x="0" y="0" width="20" height="21">
<rect y="0.5" width="20" height="20" fill="#D9D9D9"/>
</mask>
<g mask="url(#mask0_7492_231)">
<path d="M5.83301 18.8334C5.37467 18.8334 4.98231 18.6702 4.65592 18.3438C4.32954 18.0174 4.16634 17.6251 4.16634 17.1667C4.16634 16.7084 4.32954 16.3161 4.65592 15.9897C4.98231 15.6633 5.37467 15.5001 5.83301 15.5001C6.29134 15.5001 6.6837 15.6633 7.01009 15.9897C7.33648 16.3161 7.49967 16.7084 7.49967 17.1667C7.49967 17.6251 7.33648 18.0174 7.01009 18.3438C6.6837 18.6702 6.29134 18.8334 5.83301 18.8334ZM14.1663 18.8334C13.708 18.8334 13.3156 18.6702 12.9893 18.3438C12.6629 18.0174 12.4997 17.6251 12.4997 17.1667C12.4997 16.7084 12.6629 16.3161 12.9893 15.9897C13.3156 15.6633 13.708 15.5001 14.1663 15.5001C14.6247 15.5001 15.017 15.6633 15.3434 15.9897C15.6698 16.3161 15.833 16.7084 15.833 17.1667C15.833 17.6251 15.6698 18.0174 15.3434 18.3438C15.017 18.6702 14.6247 18.8334 14.1663 18.8334ZM5.12467 5.50008L7.12467 9.66675H12.958L15.2497 5.50008H5.12467ZM4.33301 3.83341H16.6247C16.9441 3.83341 17.1872 3.97578 17.3538 4.2605C17.5205 4.54522 17.5275 4.83341 17.3747 5.12508L14.4163 10.4584C14.2636 10.7362 14.0587 10.9515 13.8018 11.1042C13.5448 11.257 13.2636 11.3334 12.958 11.3334H6.74967L5.83301 13.0001H15.833V14.6667H5.83301C5.20801 14.6667 4.73579 14.3924 4.41634 13.8438C4.0969 13.2952 4.08301 12.7501 4.37467 12.2084L5.49967 10.1667L2.49967 3.83341H0.833008V2.16675H3.54134L4.33301 3.83341Z" fill="#3BADFC"/>
</g>
</svg>
